<?xml version="1.0" standalone="no"?>
<!DOCTYPE svg PUBLIC "-//W3C//DTD SVG 20010904//EN"
 "http://www.w3.org/TR/2001/REC-SVG-20010904/DTD/svg10.dtd">
<svg version="1.0" xmlns="http://www.w3.org/2000/svg"
 width="66.000000pt" height="66.000000pt" viewBox="0 0 66.000000 66.000000"
 preserveAspectRatio="xMidYMid meet">

<g transform="translate(0.000000,66.000000) scale(0.100000,-0.100000)"
fill="#000000" stroke="none">
<path d="M147 601 c-65 -14 -122 -32 -126 -39 -10 -17 75 -442 92 -459 9 -9
24 -9 58 -2 43 9 52 7 149 -35 56 -26 112 -46 125 -46 19 0 34 28 113 210 50
116 89 216 86 224 -6 15 -234 116 -263 116 -11 0 -24 -8 -30 -17 -8 -15 -10
-16 -14 -3 -20 71 -23 75 -47 76 -14 1 -78 -10 -143 -25z m167 2 c2 -10 14
-67 26 -128 22 -112 37 -157 25 -75 -4 31 -1 56 10 83 13 32 18 36 35 27 23
-13 52 -14 30 -1 -43 24 -57 22 -71 -10 -11 -28 -14 -29 -20 -13 -8 23 16 74
36 74 19 0 226 -89 243 -104 9 -9 -7 -55 -77 -216 -59 -135 -95 -206 -106
-208 -15 -3 -177 61 -198 78 -11 10 130 33 144 24 7 -4 9 -3 5 4 -3 6 -2 13 4
17 5 3 10 15 10 26 0 12 7 19 19 19 30 0 71 56 71 97 0 37 -44 93 -74 93 -20
0 -20 0 -1 -38 18 -36 11 -76 -16 -96 -16 -11 -18 -21 -13 -54 5 -33 3 -41
-12 -46 -51 -16 -254 -52 -262 -47 -13 8 -101 436 -93 449 6 9 213 58 258 61
13 0 24 -6 27 -16z m176 -304 c0 -31 -27 -77 -50 -84 -34 -11 -41 4 -17 36 16
22 22 44 21 77 l-1 46 23 -28 c13 -15 24 -36 24 -47z"/>
<path d="M245 579 l-30 -8 32 3 c34 3 43 -8 43 -46 0 -12 3 -19 6 -15 8 8 -5
77 -14 76 -4 -1 -20 -5 -37 -10z"/>
<path d="M64 544 c-8 -3 -9 -16 -4 -40 12 -50 19 -53 13 -6 -5 38 -4 41 23 45
25 3 26 4 4 5 -14 0 -30 -2 -36 -4z"/>
<path d="M192 440 c0 -14 2 -19 5 -12 2 6 2 18 0 25 -3 6 -5 1 -5 -13z"/>
<path d="M227 440 c-3 -11 -2 -20 3 -20 4 0 10 9 13 20 3 11 2 20 -3 20 -4 0
-10 -9 -13 -20z"/>
<path d="M563 447 c18 -7 27 -17 24 -27 -3 -8 -8 -24 -11 -35 -4 -11 1 -5 11
13 18 35 13 46 -27 55 -22 6 -21 5 3 -6z"/>
<path d="M140 433 c0 -13 29 -38 35 -31 3 3 -4 13 -15 23 -11 10 -20 13 -20 8z"/>
<path d="M259 413 c-13 -17 -13 -17 6 -3 11 8 22 16 24 17 2 2 0 3 -6 3 -6 0
-17 -8 -24 -17z"/>
<path d="M115 390 c3 -4 14 -10 25 -13 11 -3 18 -2 15 3 -3 4 -14 10 -25 13
-11 3 -18 2 -15 -3z"/>
<path d="M192 388 c-30 -30 1 -73 36 -51 23 14 25 29 7 47 -20 19 -27 20 -43
4z m41 -34 c-3 -8 -12 -14 -19 -14 -20 0 -30 30 -13 40 17 11 40 -7 32 -26z"/>
<path d="M270 380 c-11 -8 -7 -9 15 -4 37 8 45 14 19 14 -10 0 -26 -5 -34 -10z"/>
<path d="M123 343 c9 -2 23 -2 30 0 6 3 -1 5 -18 5 -16 0 -22 -2 -12 -5z"/>
<path d="M275 340 c27 -12 43 -12 25 0 -8 5 -22 9 -30 9 -10 0 -8 -3 5 -9z"/>
<path d="M372 330 c0 -14 2 -19 5 -12 2 6 2 18 0 25 -3 6 -5 1 -5 -13z"/>
<path d="M148 308 c-10 -10 -14 -18 -9 -18 10 0 36 29 30 34 -2 1 -12 -6 -21
-16z"/>
<path d="M260 305 c7 -9 15 -13 17 -11 7 7 -7 26 -19 26 -6 0 -6 -6 2 -15z"/>
<path d="M191 303 c-1 -6 -4 -20 -7 -30 -5 -17 -5 -17 6 0 6 10 9 23 6 30 -3
9 -5 9 -5 0z"/>
<path d="M221 305 c1 -19 18 -51 18 -35 0 8 -4 22 -9 30 -5 8 -9 11 -9 5z"/>
<path d="M382 280 c0 -14 2 -19 5 -12 2 6 2 18 0 25 -3 6 -5 1 -5 -13z"/>
<path d="M354 229 c4 -33 2 -38 -27 -48 l-32 -11 34 5 c19 3 36 7 38 9 2 1 -1
21 -7 42 l-10 39 4 -36z"/>
<path d="M124 190 c3 -14 6 -31 6 -37 0 -14 56 -18 64 -5 3 5 -8 6 -25 4 -23
-3 -29 -1 -29 14 0 11 -5 26 -11 34 -8 12 -9 10 -5 -10z"/>
<path d="M450 100 c-8 -20 -18 -29 -26 -26 -37 15 -47 16 -24 2 36 -22 44 -20
58 16 15 41 9 48 -8 8z"/>
<path d="M624 582 c3 -6 -2 -13 -11 -15 -16 -4 -16 -5 -1 -6 21 -1 32 15 17
25 -7 4 -9 3 -5 -4z"/>
<path d="M565 95 l-20 -20 20 -20 20 -20 20 20 20 20 -20 20 -20 20 -20 -20z
m34 -31 c-9 -11 -15 -12 -25 -3 -11 9 -12 15 -3 25 9 11 15 12 25 3 11 -9 12
-15 3 -25z"/>
<path d="M180 56 c0 -8 4 -18 10 -21 6 -4 7 1 3 11 -5 14 -3 16 11 11 10 -4
15 -3 11 3 -9 15 -35 12 -35 -4z"/>
</g>
</svg>
